{
  "accessors": [
    {
      "name": "model.002-Mesh_0_positions",
      "componentType": 5126,
      "count": 12303,
      "min": [
        -0.34553998708724976,
        0.15745499730110168,
        -0.4581640064716339
      ],
      "max": [
        0.33911600708961487,
        1.0790430307388306,
        0.32744300365448
      ],
      "type": "VEC3",
      "bufferView": 0,
      "byteOffset": 0
    },
    {
      "name": "model.002-Mesh_0_normals",
      "componentType": 5126,
      "count": 12303,
      "min": [
        -0.9925822615623474,
        -0.995469868183136,
        -0.9991149306297302
      ],
      "max": [
        0.9985032677650452,
        0.9948812127113342,
        0.9991149306297302
      ],
      "type": "VEC3",
      "bufferView": 1,
      "byteOffset": 0
    },
    {
      "name": "model.002-Mesh_0_texcoords",
      "componentType": 5126,
      "count": 12303,
      "min": [
        0.00534699996933341,
        0.003982999827712774
      ],
      "max": [
        0.5267030000686646,
        0.9953600168228149
      ],
      "type": "VEC2",
      "bufferView": 2,
      "byteOffset": 0
    },
    {
      "name": "model.002-Mesh_0_indices",
      "componentType": 5123,
      "count": 53274,
      "min": [
        0
      ],
      "max": [
        12302
      ],
      "type": "SCALAR",
      "bufferView": 3,
      "byteOffset": 0
    }
  ],
  "asset": {
    "generator": "obj2gltf",
    "version": "2.0"
  },
  "buffers": [
    {
      "name": "prakash_avatar",
      "byteLength": 500244,
      "uri": "data:application/octet-stream;base64,"
    }
  ],
  "bufferViews": [
    {
      "name": "bufferView_0",
      "buffer": 0,
      "byteLength": 147636,
      "byteOffset": 0,
      "byteStride": 12,
      "target": 34962
    },
    {
      "name": "bufferView_1",
      "buffer": 0,
      "byteLength": 147636,
      "byteOffset": 147636,
      "byteStride": 12,
      "target": 34962
    },
    {
      "name": "bufferView_2",
      "buffer": 0,
      "byteLength": 98424,
      "byteOffset": 295272,
      "byteStride": 8,
      "target": 34962
    },
    {
      "name": "bufferView_3",
      "buffer": 0,
      "byteLength": 106548,
      "byteOffset": 393696,
      "target": 34963
    }
  ],
  "materials": [
    {
      "name": "material_0.001",
      "pbrMetallicRoughness": {
        "baseColorFactor": [
          0,
          0,
          0,
          1
        ],
        "metallicFactor": 0,
        "roughnessFactor": 1
      },
      "emissiveFactor": [
        0,
        0,
        0
      ],
      "alphaMode": "OPAQUE",
      "doubleSided": false
    }
  ],
  "meshes": [
    {
      "name": "model.002-Mesh",
      "primitives": [
        {
          "attributes": {
            "POSITION": 0,
            "NORMAL": 1,
            "TEXCOORD_0": 2
          },
          "indices": 3,
          "material": 0,
          "mode": 4
        }
      ]
    }
  ],
  "nodes": [
    {
      "name": "model.002",
      "mesh": 0
    }
  ],
  "scene": 0,
  "scenes": [
    {
      "nodes": [
        0
      ]
    }
  ]
}
