<?xml version="1.0" standalone="no"?>
<!DOCTYPE svg PUBLIC "-//W3C//DTD SVG 20010904//EN"
 "http://www.w3.org/TR/2001/REC-SVG-20010904/DTD/svg10.dtd">
<svg version="1.0" xmlns="http://www.w3.org/2000/svg"
 width="230.000000pt" height="230.000000pt" viewBox="0 0 230.000000 230.000000"
 preserveAspectRatio="xMidYMid meet">
<metadata>
Created by potrace 1.14, written by Peter Selinger 2001-2017
</metadata>
<g transform="translate(0.000000,230.000000) scale(0.100000,-0.100000)"
fill="#000000" stroke="none">
<path d="M1396 1969 c-15 -12 -32 -33 -38 -48 -6 -15 -10 -110 -9 -219 0 -180
-1 -193 -16 -180 -10 7 -53 47 -96 88 -139 133 -171 161 -242 212 -90 64 -138
89 -200 102 -89 20 -136 0 -159 -67 -26 -76 4 -130 92 -162 47 -18 152 -91
227 -160 22 -20 89 -82 148 -138 l108 -100 -134 -136 c-200 -202 -315 -331
-365 -411 -9 -14 -20 -28 -25 -31 -17 -12 -11 -79 9 -106 34 -45 72 -61 124
-51 47 8 47 9 174 149 71 79 221 242 292 318 l62 65 -3 -59 c-1 -33 -6 -135
-10 -226 -6 -143 -5 -169 9 -197 30 -58 94 -81 157 -56 57 23 72 61 76 189 3
129 3 131 2 148 0 6 2 111 6 232 3 121 8 315 11 430 2 116 5 224 6 240 1 52
-12 106 -33 136 -42 59 -123 77 -173 38z"/>
</g>
</svg>
